<?xml version="1.0" encoding="UTF-8" standalone="no"?>
<!-- Created with Inkscape (http://www.inkscape.org/) -->
<svg
   xmlns:dc="http://purl.org/dc/elements/1.1/"
   xmlns:cc="http://web.resource.org/cc/"
   xmlns:rdf="http://www.w3.org/1999/02/22-rdf-syntax-ns#"
   xmlns:svg="http://www.w3.org/2000/svg"
   xmlns="http://www.w3.org/2000/svg"
   xmlns:sodipodi="http://sodipodi.sourceforge.net/DTD/sodipodi-0.dtd"
   xmlns:inkscape="http://www.inkscape.org/namespaces/inkscape"
   id="svg2211"
   sodipodi:version="0.32"
   inkscape:version="0.45.1"
   width="44"
   height="40"
   version="1.0"
   sodipodi:docbase="/Users/dave/Desktop"
   sodipodi:docname="logo.svg"
   inkscape:output_extension="org.inkscape.output.svg.inkscape">
  <metadata
     id="metadata2216">
    <rdf:RDF>
      <cc:Work
         rdf:about="">
        <dc:format>image/svg+xml</dc:format>
        <dc:type
           rdf:resource="http://purl.org/dc/dcmitype/StillImage" />
      </cc:Work>
    </rdf:RDF>
  </metadata>
  <defs
     id="defs2214" />
  <sodipodi:namedview
     inkscape:window-height="968"
     inkscape:window-width="897"
     inkscape:pageshadow="2"
     inkscape:pageopacity="0.0"
     guidetolerance="10.0"
     gridtolerance="10.0"
     objecttolerance="10.0"
     borderopacity="1.0"
     bordercolor="#666666"
     pagecolor="#ffffff"
     id="base"
     inkscape:zoom="9.45"
     inkscape:cx="22"
     inkscape:cy="20"
     inkscape:window-x="1657"
     inkscape:window-y="296"
     inkscape:current-layer="svg2211" />
  <g
     id="g2339">
    <path
       style="fill:#fefefe"
       d="M 0,20 L 0,0 L 22,0 L 44,0 L 44,20 L 44,40 L 22,40 L 0,40 L 0,20 z "
       id="path2397" />
    <path
       style="fill:#f2f3f7"
       d="M 0,20 L 0,0 L 22,0 L 44,0 L 44,20 L 44,40 L 22,40 L 0,40 L 0,20 z M 11.773814,36.821443 C 11.039514,34.618541 8.1347966,33.425202 6.3095191,34.576558 C 3.0102084,36.657709 3.6730256,38 8,38 C 10.75418,38 12.033491,37.600473 11.773814,36.821443 z M 8,33 C 11.781355,33 12.954364,33.386536 13.310674,34.75 C 13.562202,35.7125 13.748181,30.425 13.723962,23 C 13.699742,15.575 13.498431,10.9625 13.276604,12.75 C 12.883597,15.916891 12.748664,16 8,16 C 3.2513364,16 3.1164033,15.916891 2.7233956,12.75 C 2.5015688,10.9625 2.3002581,15.575 2.2760384,23 C 2.2518188,30.425 2.437798,35.7125 2.6893255,34.75 C 3.0456359,33.386536 4.2186452,33 8,33 z M 3,28.5 L 3,25 L 8,25 L 13,25 L 13,28.5 L 13,32 L 8,32 L 3,32 L 3,28.5 z M 10.776206,29.823794 C 12.258286,28.341714 10.558121,26 8,26 C 5.4418786,26 3.7417136,28.341714 5.2237936,29.823794 C 5.8707071,30.470707 7.12,31 8,31 C 8.88,31 10.129293,30.470707 10.776206,29.823794 z M 3,20.5 L 3,17 L 8,17 L 13,17 L 13,20.5 L 13,24 L 8,24 L 3,24 L 3,20.5 z M 10.776206,21.823794 C 12.258286,20.341714 10.558121,18 8,18 C 5.4418786,18 3.7417136,20.341714 5.2237936,21.823794 C 5.8707071,22.470707 7.12,23 8,23 C 8.88,23 10.129293,22.470707 10.776206,21.823794 z M 40.8,32.8 C 42.420693,31.179307 42.420693,14.820693 40.8,13.2 C 39.154358,11.554358 18.845642,11.554358 17.2,13.2 C 15.579307,14.820693 15.579307,31.179307 17.2,32.8 C 18.845642,34.445642 39.154358,34.445642 40.8,32.8 z M 10.776206,13.823794 C 12.258286,12.341714 10.558121,10 8,10 C 5.4418786,10 3.7417136,12.341714 5.2237936,13.823794 C 5.8707071,14.470707 7.12,15 8,15 C 8.88,15 10.129293,14.470707 10.776206,13.823794 z M 10.25,8.294267 C 9.0125,8.0559141 6.9875,8.0559141 5.75,8.294267 C 4.5125,8.5326199 5.525,8.7276359 8,8.7276359 C 10.475,8.7276359 11.4875,8.5326199 10.25,8.294267 z "
       id="path2395" />
    <path
       style="fill:#e5e8f0"
       d="M 0,20 L 0,0 L 22,0 L 44,0 L 44,20 L 44,40 L 22,40 L 0,40 L 0,20 z M 11.773814,36.821443 C 11.039514,34.618541 8.1347966,33.425202 6.3095191,34.576558 C 3.0102084,36.657709 3.6730256,38 8,38 C 10.75418,38 12.033491,37.600473 11.773814,36.821443 z M 8,33 C 11.781355,33 12.954364,33.386536 13.310674,34.75 C 13.562202,35.7125 13.748181,30.425 13.723962,23 C 13.699742,15.575 13.498431,10.9625 13.276604,12.75 C 12.883597,15.916891 12.748664,16 8,16 C 3.2513364,16 3.1164033,15.916891 2.7233956,12.75 C 2.5015688,10.9625 2.3002581,15.575 2.2760384,23 C 2.2518188,30.425 2.437798,35.7125 2.6893255,34.75 C 3.0456359,33.386536 4.2186452,33 8,33 z M 3,28.5 L 3,25 L 8,25 L 13,25 L 13,28.5 L 13,32 L 8,32 L 3,32 L 3,28.5 z M 10.776206,29.823794 C 12.258286,28.341714 10.558121,26 8,26 C 5.4418786,26 3.7417136,28.341714 5.2237936,29.823794 C 5.8707071,30.470707 7.12,31 8,31 C 8.88,31 10.129293,30.470707 10.776206,29.823794 z M 3,20.5 L 3,17 L 8,17 L 13,17 L 13,20.5 L 13,24 L 8,24 L 3,24 L 3,20.5 z M 10.776206,21.823794 C 12.258286,20.341714 10.558121,18 8,18 C 5.4418786,18 3.7417136,20.341714 5.2237936,21.823794 C 5.8707071,22.470707 7.12,23 8,23 C 8.88,23 10.129293,22.470707 10.776206,21.823794 z M 41.5,23 L 41.5,12.5 L 29,12.5 L 16.5,12.5 L 16.210159,21.924983 C 16.050746,27.108724 16.154465,31.960145 16.440645,32.705919 C 16.847845,33.767067 19.62855,34.000791 29.230486,33.780935 L 41.5,33.5 L 41.5,23 z M 10.776206,13.823794 C 12.258286,12.341714 10.558121,10 8,10 C 5.4418786,10 3.7417136,12.341714 5.2237936,13.823794 C 5.8707071,14.470707 7.12,15 8,15 C 8.88,15 10.129293,14.470707 10.776206,13.823794 z M 10.25,8.294267 C 9.0125,8.0559141 6.9875,8.0559141 5.75,8.294267 C 4.5125,8.5326199 5.525,8.7276359 8,8.7276359 C 10.475,8.7276359 11.4875,8.5326199 10.25,8.294267 z "
       id="path2393" />
    <path
       style="fill:#e9e9e9"
       d="M 0,20 L 0,0 L 22,0 L 44,0 L 44,20 L 44,40 L 22,40 L 0,40 L 0,20 z M 11.773814,36.821443 C 11.039514,34.618541 8.1347966,33.425202 6.3095191,34.576558 C 3.0102084,36.657709 3.6730256,38 8,38 C 10.75418,38 12.033491,37.600473 11.773814,36.821443 z M 8,33 C 11.781355,33 12.954364,33.386536 13.310674,34.75 C 13.562202,35.7125 13.748181,30.425 13.723962,23 C 13.699742,15.575 13.498431,10.9625 13.276604,12.75 C 12.883597,15.916891 12.748664,16 8,16 C 3.2513364,16 3.1164033,15.916891 2.7233956,12.75 C 2.5015688,10.9625 2.3002581,15.575 2.2760384,23 C 2.2518188,30.425 2.437798,35.7125 2.6893255,34.75 C 3.0456359,33.386536 4.2186452,33 8,33 z M 3,28.5 L 3,25 L 8,25 L 13,25 L 13,28.5 L 13,32 L 8,32 L 3,32 L 3,28.5 z M 10.776206,29.823794 C 12.258286,28.341714 10.558121,26 8,26 C 5.4418786,26 3.7417136,28.341714 5.2237936,29.823794 C 5.8707071,30.470707 7.12,31 8,31 C 8.88,31 10.129293,30.470707 10.776206,29.823794 z M 3,20.5 L 3,17 L 8,17 L 13,17 L 13,20.5 L 13,24 L 8,24 L 3,24 L 3,20.5 z M 10.776206,21.823794 C 12.258286,20.341714 10.558121,18 8,18 C 5.4418786,18 3.7417136,20.341714 5.2237936,21.823794 C 5.8707071,22.470707 7.12,23 8,23 C 8.88,23 10.129293,22.470707 10.776206,21.823794 z M 42,23 L 42,12 L 29,12 L 16,12 L 16,23 L 16,34 L 29,34 L 42,34 L 42,23 z M 10.776206,13.823794 C 12.258286,12.341714 10.558121,10 8,10 C 5.4418786,10 3.7417136,12.341714 5.2237936,13.823794 C 5.8707071,14.470707 7.12,15 8,15 C 8.88,15 10.129293,14.470707 10.776206,13.823794 z M 10.25,8.294267 C 9.0125,8.0559141 6.9875,8.0559141 5.75,8.294267 C 4.5125,8.5326199 5.525,8.7276359 8,8.7276359 C 10.475,8.7276359 11.4875,8.5326199 10.25,8.294267 z "
       id="path2391" />
    <path
       style="fill:#e6e6e6"
       d="M 0,20 L 0,0 L 22,0 L 44,0 L 44,20 L 44,40 L 22,40 L 0,40 L 0,20 z M 11.773814,36.821443 C 11.039514,34.618541 8.1347966,33.425202 6.3095191,34.576558 C 3.0102084,36.657709 3.6730256,38 8,38 C 10.75418,38 12.033491,37.600473 11.773814,36.821443 z M 40,37 C 40,36.393939 35.666667,36 29,36 C 22.333333,36 18,36.393939 18,37 C 18,37.606061 22.333333,38 29,38 C 35.666667,38 40,37.606061 40,37 z M 8,33 C 11.781355,33 12.954364,33.386536 13.310674,34.75 C 13.562202,35.7125 13.748181,30.425 13.723962,23 C 13.699742,15.575 13.498431,10.9625 13.276604,12.75 C 12.883597,15.916891 12.748664,16 8,16 C 3.2513364,16 3.1164033,15.916891 2.7233956,12.75 C 2.5015688,10.9625 2.3002581,15.575 2.2760384,23 C 2.2518188,30.425 2.437798,35.7125 2.6893255,34.75 C 3.0456359,33.386536 4.2186452,33 8,33 z M 3,28.5 L 3,25 L 8,25 L 13,25 L 13,28.5 L 13,32 L 8,32 L 3,32 L 3,28.5 z M 10.776206,29.823794 C 12.258286,28.341714 10.558121,26 8,26 C 5.4418786,26 3.7417136,28.341714 5.2237936,29.823794 C 5.8707071,30.470707 7.12,31 8,31 C 8.88,31 10.129293,30.470707 10.776206,29.823794 z M 3,20.5 L 3,17 L 8,17 L 13,17 L 13,20.5 L 13,24 L 8,24 L 3,24 L 3,20.5 z M 10.776206,21.823794 C 12.258286,20.341714 10.558121,18 8,18 C 5.4418786,18 3.7417136,20.341714 5.2237936,21.823794 C 5.8707071,22.470707 7.12,23 8,23 C 8.88,23 10.129293,22.470707 10.776206,21.823794 z M 42,23 L 42,12 L 29,12 L 16,12 L 16,23 L 16,34 L 29,34 L 42,34 L 42,23 z M 10.776206,13.823794 C 12.258286,12.341714 10.558121,10 8,10 C 5.4418786,10 3.7417136,12.341714 5.2237936,13.823794 C 5.8707071,14.470707 7.12,15 8,15 C 8.88,15 10.129293,14.470707 10.776206,13.823794 z M 10.25,8.294267 C 9.0125,8.0559141 6.9875,8.0559141 5.75,8.294267 C 4.5125,8.5326199 5.525,8.7276359 8,8.7276359 C 10.475,8.7276359 11.4875,8.5326199 10.25,8.294267 z "
       id="path2389" />
    <path
       style="fill:#e5e5e5"
       d="M 0,20 L 0,0 L 22,0 L 44,0 L 44,20 L 44,40 L 22,40 L 0,40 L 0,20 z M 11.773814,36.821443 C 11.039514,34.618541 8.1347966,33.425202 6.3095191,34.576558 C 3.0102084,36.657709 3.6730256,38 8,38 C 10.75418,38 12.033491,37.600473 11.773814,36.821443 z M 40.5,37 C 40.899036,36.354347 36.824045,36 29,36 C 21.175955,36 17.100964,36.354347 17.5,37 C 17.850759,37.56754 22.824045,38 29,38 C 35.175955,38 40.149241,37.56754 40.5,37 z M 8,33 C 11.781355,33 12.954364,33.386536 13.310674,34.75 C 13.562202,35.7125 13.748181,30.425 13.723962,23 C 13.699742,15.575 13.498431,10.9625 13.276604,12.75 C 12.883597,15.916891 12.748664,16 8,16 C 3.2513364,16 3.1164033,15.916891 2.7233956,12.75 C 2.5015688,10.9625 2.3002581,15.575 2.2760384,23 C 2.2518188,30.425 2.437798,35.7125 2.6893255,34.75 C 3.0456359,33.386536 4.2186452,33 8,33 z M 3,28.5 L 3,25 L 8,25 L 13,25 L 13,28.5 L 13,32 L 8,32 L 3,32 L 3,28.5 z M 10.776206,29.823794 C 12.258286,28.341714 10.558121,26 8,26 C 5.4418786,26 3.7417136,28.341714 5.2237936,29.823794 C 5.8707071,30.470707 7.12,31 8,31 C 8.88,31 10.129293,30.470707 10.776206,29.823794 z M 3,20.5 L 3,17 L 8,17 L 13,17 L 13,20.5 L 13,24 L 8,24 L 3,24 L 3,20.5 z M 10.776206,21.823794 C 12.258286,20.341714 10.558121,18 8,18 C 5.4418786,18 3.7417136,20.341714 5.2237936,21.823794 C 5.8707071,22.470707 7.12,23 8,23 C 8.88,23 10.129293,22.470707 10.776206,21.823794 z M 42,23 L 42,12 L 29,12 L 16,12 L 16,23 L 16,34 L 29,34 L 42,34 L 42,23 z M 10.776206,13.823794 C 12.258286,12.341714 10.558121,10 8,10 C 5.4418786,10 3.7417136,12.341714 5.2237936,13.823794 C 5.8707071,14.470707 7.12,15 8,15 C 8.88,15 10.129293,14.470707 10.776206,13.823794 z M 22,9 C 22,8.45 21.126558,8 20.059017,8 C 18.991476,8 17.839919,8.45 17.5,9 C 17.149477,9.5671581 17.989616,10 19.440983,10 C 20.848442,10 22,9.55 22,9 z M 10.25,8.294267 C 9.0125,8.0559141 6.9875,8.0559141 5.75,8.294267 C 4.5125,8.5326199 5.525,8.7276359 8,8.7276359 C 10.475,8.7276359 11.4875,8.5326199 10.25,8.294267 z "
       id="path2387" />
    <path
       style="fill:#dfe3ec"
       d="M 0,20 L 0,0 L 22,0 L 44,0 L 44,20 L 44,40 L 22,40 L 0,40 L 0,20 z M 11.773814,36.821443 C 11.039514,34.618541 8.1347966,33.425202 6.3095191,34.576558 C 3.0102084,36.657709 3.6730256,38 8,38 C 10.75418,38 12.033491,37.600473 11.773814,36.821443 z M 40.5,37 C 40.899036,36.354347 36.824045,36 29,36 C 21.175955,36 17.100964,36.354347 17.5,37 C 17.850759,37.56754 22.824045,38 29,38 C 35.175955,38 40.149241,37.56754 40.5,37 z M 8,33 C 11.781355,33 12.954364,33.386536 13.310674,34.75 C 13.562202,35.7125 13.748181,30.425 13.723962,23 C 13.699742,15.575 13.498431,10.9625 13.276604,12.75 C 12.883597,15.916891 12.748664,16 8,16 C 3.2513364,16 3.1164033,15.916891 2.7233956,12.75 C 2.5015688,10.9625 2.3002581,15.575 2.2760384,23 C 2.2518188,30.425 2.437798,35.7125 2.6893255,34.75 C 3.0456359,33.386536 4.2186452,33 8,33 z M 3,28.5 L 3,25 L 8,25 L 13,25 L 13,28.5 L 13,32 L 8,32 L 3,32 L 3,28.5 z M 10.776206,29.823794 C 12.258286,28.341714 10.558121,26 8,26 C 5.4418786,26 3.7417136,28.341714 5.2237936,29.823794 C 5.8707071,30.470707 7.12,31 8,31 C 8.88,31 10.129293,30.470707 10.776206,29.823794 z M 3,20.5 L 3,17 L 8,17 L 13,17 L 13,20.5 L 13,24 L 8,24 L 3,24 L 3,20.5 z M 10.776206,21.823794 C 12.258286,20.341714 10.558121,18 8,18 C 5.4418786,18 3.7417136,20.341714 5.2237936,21.823794 C 5.8707071,22.470707 7.12,23 8,23 C 8.88,23 10.129293,22.470707 10.776206,21.823794 z M 42,23 L 42,12 L 29,12 L 16,12 L 16,23 L 16,34 L 29,34 L 42,34 L 42,23 z M 10.776206,13.823794 C 12.258286,12.341714 10.558121,10 8,10 C 5.4418786,10 3.7417136,12.341714 5.2237936,13.823794 C 5.8707071,14.470707 7.12,15 8,15 C 8.88,15 10.129293,14.470707 10.776206,13.823794 z M 26,9 C 26,8.45 24.226558,8 22.059017,8 C 19.891476,8 17.839919,8.45 17.5,9 C 17.122498,9.6108116 18.656282,10 21.440983,10 C 23.948442,10 26,9.55 26,9 z M 10.25,8.294267 C 9.0125,8.0559141 6.9875,8.0559141 5.75,8.294267 C 4.5125,8.5326199 5.525,8.7276359 8,8.7276359 C 10.475,8.7276359 11.4875,8.5326199 10.25,8.294267 z "
       id="path2385" />
    <path
       style="fill:#e4e4e4"
       d="M 0,20 L 0,0 L 22,0 L 44,0 L 44,20 L 44,40 L 22,40 L 0,40 L 0,20 z M 13.5,23 L 13.5,8.5 L 8,8.5 L 2.5,8.5 L 2.2195852,21.949549 C 2.0653571,29.3468 2.1728251,36.007992 2.4584031,36.752196 C 2.8257374,37.709454 4.5167632,38.016757 8.2388179,37.802647 L 13.5,37.5 L 13.5,23 z M 3.0304087,35.25 C 3.0028734,33.212612 3.4724715,33 8,33 C 12.527528,33 12.997127,33.212612 12.969591,35.25 C 12.942434,37.259402 12.830188,37.312868 11.919901,35.75 C 11.319873,34.719814 9.7075307,34 8,34 C 6.2924693,34 4.6801272,34.719814 4.0800988,35.75 C 3.1698115,37.312868 3.0575657,37.259402 3.0304087,35.25 z M 3,28.5 L 3,25 L 8,25 L 13,25 L 13,28.5 L 13,32 L 8,32 L 3,32 L 3,28.5 z M 11.5,28.5 C 11.5,27.040465 10.723941,26.411316 8.6281777,26.171822 C 5.2709521,25.788175 3.4743537,27.187804 4.3603423,29.496654 C 5.3255185,32.011862 11.5,31.149942 11.5,28.5 z M 3,20.5 L 3,17 L 8,17 L 13,17 L 13,20.5 L 13,24 L 8,24 L 3,24 L 3,20.5 z M 11.5,20.5 C 11.5,19.040465 10.723941,18.411316 8.6281777,18.171822 C 5.2709521,17.788175 3.4743537,19.187804 4.3603423,21.496654 C 5.3255185,24.011862 11.5,23.149942 11.5,20.5 z M 3,12.5 L 3,9 L 8,9 L 13,9 L 13,12.5 L 13,16 L 8,16 L 3,16 L 3,12.5 z M 11.5,12.5 C 11.5,11.040465 10.723941,10.411316 8.6281777,10.171822 C 5.2709521,9.7881752 3.4743537,11.187804 4.3603423,13.496654 C 5.3255185,16.011862 11.5,15.149942 11.5,12.5 z M 40.5,37 C 40.899036,36.354347 36.824045,36 29,36 C 21.175955,36 17.100964,36.354347 17.5,37 C 17.850759,37.56754 22.824045,38 29,38 C 35.175955,38 40.149241,37.56754 40.5,37 z M 42,23 L 42,12 L 29,12 L 16,12 L 16,23 L 16,34 L 29,34 L 42,34 L 42,23 z M 26,9 C 26,8.45 24.226558,8 22.059017,8 C 19.891476,8 17.839919,8.45 17.5,9 C 17.122498,9.6108116 18.656282,10 21.440983,10 C 23.948442,10 26,9.55 26,9 z "
       id="path2383" />
    <path
       style="fill:#e3e3e3"
       d="M 0,20 L 0,0 L 22,0 L 44,0 L 44,20 L 44,40 L 22,40 L 0,40 L 0,20 z M 13.5,23 L 13.5,8.5 L 8,8.5 L 2.5,8.5 L 2.2195852,21.949549 C 2.0653571,29.3468 2.1728251,36.007992 2.4584031,36.752196 C 2.8257374,37.709454 4.5167632,38.016757 8.2388179,37.802647 L 13.5,37.5 L 13.5,23 z M 3.0304087,35.25 C 3.0028734,33.212612 3.4724715,33 8,33 C 12.527528,33 12.997127,33.212612 12.969591,35.25 C 12.942434,37.259402 12.830188,37.312868 11.919901,35.75 C 11.319873,34.719814 9.7075307,34 8,34 C 6.2924693,34 4.6801272,34.719814 4.0800988,35.75 C 3.1698115,37.312868 3.0575657,37.259402 3.0304087,35.25 z M 3,28.5 L 3,25 L 8,25 L 13,25 L 13,28.5 L 13,32 L 8,32 L 3,32 L 3,28.5 z M 11.5,28.5 C 11.5,27.040465 10.723941,26.411316 8.6281777,26.171822 C 5.2709521,25.788175 3.4743537,27.187804 4.3603423,29.496654 C 5.3255185,32.011862 11.5,31.149942 11.5,28.5 z M 3,20.5 L 3,17 L 8,17 L 13,17 L 13,20.5 L 13,24 L 8,24 L 3,24 L 3,20.5 z M 11.5,20.5 C 11.5,19.040465 10.723941,18.411316 8.6281777,18.171822 C 5.2709521,17.788175 3.4743537,19.187804 4.3603423,21.496654 C 5.3255185,24.011862 11.5,23.149942 11.5,20.5 z M 3,12.5 L 3,9 L 8,9 L 13,9 L 13,12.5 L 13,16 L 8,16 L 3,16 L 3,12.5 z M 11.5,12.5 C 11.5,11.040465 10.723941,10.411316 8.6281777,10.171822 C 5.2709521,9.7881752 3.4743537,11.187804 4.3603423,13.496654 C 5.3255185,16.011862 11.5,15.149942 11.5,12.5 z M 40.5,37 C 40.899036,36.354347 36.824045,36 29,36 C 21.175955,36 17.100964,36.354347 17.5,37 C 17.850759,37.56754 22.824045,38 29,38 C 35.175955,38 40.149241,37.56754 40.5,37 z M 42,23 L 42,12 L 29,12 L 16,12 L 16,23 L 16,34 L 29,34 L 42,34 L 42,23 z M 30,9 C 30,8.4455482 27.353006,8 24.059017,8 C 20.791476,8 17.839919,8.45 17.5,9 C 17.111972,9.6278432 19.322949,10 23.440983,10 C 27.146994,10 30,9.5650254 30,9 z "
       id="path2381" />
    <path
       style="fill:#e2e2e2"
       d="M 0,20 L 0,0 L 22,0 L 44,0 L 44,20 L 44,40 L 22,40 L 0,40 L 0,20 z M 13.5,23 L 13.5,8.5 L 8,8.5 L 2.5,8.5 L 2.2195852,21.949549 C 2.0653571,29.3468 2.1728251,36.007992 2.4584031,36.752196 C 2.8257374,37.709454 4.5167632,38.016757 8.2388179,37.802647 L 13.5,37.5 L 13.5,23 z M 3.0304087,35.25 C 3.0028734,33.212612 3.4724715,33 8,33 C 12.527528,33 12.997127,33.212612 12.969591,35.25 C 12.942434,37.259402 12.830188,37.312868 11.919901,35.75 C 11.319873,34.719814 9.7075307,34 8,34 C 6.2924693,34 4.6801272,34.719814 4.0800988,35.75 C 3.1698115,37.312868 3.0575657,37.259402 3.0304087,35.25 z M 3,28.5 L 3,25 L 8,25 L 13,25 L 13,28.5 L 13,32 L 8,32 L 3,32 L 3,28.5 z M 11.5,28.5 C 11.5,27.040465 10.723941,26.411316 8.6281777,26.171822 C 5.2709521,25.788175 3.4743537,27.187804 4.3603423,29.496654 C 5.3255185,32.011862 11.5,31.149942 11.5,28.5 z M 3,20.5 L 3,17 L 8,17 L 13,17 L 13,20.5 L 13,24 L 8,24 L 3,24 L 3,20.5 z M 11.5,20.5 C 11.5,19.040465 10.723941,18.411316 8.6281777,18.171822 C 5.2709521,17.788175 3.4743537,19.187804 4.3603423,21.496654 C 5.3255185,24.011862 11.5,23.149942 11.5,20.5 z M 3,12.5 L 3,9 L 8,9 L 13,9 L 13,12.5 L 13,16 L 8,16 L 3,16 L 3,12.5 z M 11.5,12.5 C 11.5,11.040465 10.723941,10.411316 8.6281777,10.171822 C 5.2709521,9.7881752 3.4743537,11.187804 4.3603423,13.496654 C 5.3255185,16.011862 11.5,15.149942 11.5,12.5 z M 40.5,37 C 40.899036,36.354347 36.824045,36 29,36 C 21.175955,36 17.100964,36.354347 17.5,37 C 17.850759,37.56754 22.824045,38 29,38 C 35.175955,38 40.149241,37.56754 40.5,37 z M 42,23 L 42,12 L 29,12 L 16,12 L 16,23 L 16,34 L 29,34 L 42,34 L 42,23 z M 32,9 C 32,8.4293812 29.019672,8 25.059017,8 C 21.241476,8 17.839919,8.45 17.5,9 C 17.108797,9.6329792 19.656282,10 24.440983,10 C 28.813661,10 32,9.5784718 32,9 z "
       id="path2379" />
    <path
       style="fill:#e1e1e1"
       d="M 0,20 L 0,0 L 22,0 L 44,0 L 44,20 L 44,40 L 22,40 L 0,40 L 0,20 z M 13.5,23 L 13.5,8.5 L 8,8.5 L 2.5,8.5 L 2.2195852,21.949549 C 2.0653571,29.3468 2.1728251,36.007992 2.4584031,36.752196 C 2.8257374,37.709454 4.5167632,38.016757 8.2388179,37.802647 L 13.5,37.5 L 13.5,23 z M 3.0304087,35.25 C 3.0028734,33.212612 3.4724715,33 8,33 C 12.527528,33 12.997127,33.212612 12.969591,35.25 C 12.942434,37.259402 12.830188,37.312868 11.919901,35.75 C 11.319873,34.719814 9.7075307,34 8,34 C 6.2924693,34 4.6801272,34.719814 4.0800988,35.75 C 3.1698115,37.312868 3.0575657,37.259402 3.0304087,35.25 z M 3,28.5 L 3,25 L 8,25 L 13,25 L 13,28.5 L 13,32 L 8,32 L 3,32 L 3,28.5 z M 11.5,28.5 C 11.5,27.040465 10.723941,26.411316 8.6281777,26.171822 C 5.2709521,25.788175 3.4743537,27.187804 4.3603423,29.496654 C 5.3255185,32.011862 11.5,31.149942 11.5,28.5 z M 3,20.5 L 3,17 L 8,17 L 13,17 L 13,20.5 L 13,24 L 8,24 L 3,24 L 3,20.5 z M 11.5,20.5 C 11.5,19.040465 10.723941,18.411316 8.6281777,18.171822 C 5.2709521,17.788175 3.4743537,19.187804 4.3603423,21.496654 C 5.3255185,24.011862 11.5,23.149942 11.5,20.5 z M 3,12.5 L 3,9 L 8,9 L 13,9 L 13,12.5 L 13,16 L 8,16 L 3,16 L 3,12.5 z M 11.5,12.5 C 11.5,11.040465 10.723941,10.411316 8.6281777,10.171822 C 5.2709521,9.7881752 3.4743537,11.187804 4.3603423,13.496654 C 5.3255185,16.011862 11.5,15.149942 11.5,12.5 z M 40.5,37 C 40.899036,36.354347 36.824045,36 29,36 C 21.175955,36 17.100964,36.354347 17.5,37 C 17.850759,37.56754 22.824045,38 29,38 C 35.175955,38 40.149241,37.56754 40.5,37 z M 42,23 L 42,12 L 29,12 L 16,12 L 16,23 L 16,34 L 29,34 L 42,34 L 42,23 z M 38,9 C 38,8.4003958 34.019672,8 28.059017,8 C 22.510384,8 17.84496,8.4418427 17.5,9 C 17.102882,9.6425504 20.656282,10 27.440983,10 C 33.813661,10 38,9.6035295 38,9 z "
       id="path2377" />
    <path
       style="fill:#c0c8da"
       d="M 0,20 L 0,0 L 22,0 L 44,0 L 44,20 L 44,40 L 22,40 L 0,40 L 0,20 z M 13.5,23 L 13.5,8.5 L 8,8.5 L 2.5,8.5 L 2.2195852,21.949549 C 2.0653571,29.3468 2.1728251,36.007992 2.4584031,36.752196 C 2.8257374,37.709454 4.5167632,38.016757 8.2388179,37.802647 L 13.5,37.5 L 13.5,23 z M 3.0304087,35.25 C 3.0028734,33.212612 3.4724715,33 8,33 C 12.527528,33 12.997127,33.212612 12.969591,35.25 C 12.942434,37.259402 12.830188,37.312868 11.919901,35.75 C 11.319873,34.719814 9.7075307,34 8,34 C 6.2924693,34 4.6801272,34.719814 4.0800988,35.75 C 3.1698115,37.312868 3.0575657,37.259402 3.0304087,35.25 z M 3,28.5 L 3,25 L 8,25 L 13,25 L 13,28.5 L 13,32 L 8,32 L 3,32 L 3,28.5 z M 11.5,28.5 C 11.5,27.040465 10.723941,26.411316 8.6281777,26.171822 C 5.2709521,25.788175 3.4743537,27.187804 4.3603423,29.496654 C 5.3255185,32.011862 11.5,31.149942 11.5,28.5 z M 3,20.5 L 3,17 L 8,17 L 13,17 L 13,20.5 L 13,24 L 8,24 L 3,24 L 3,20.5 z M 11.5,20.5 C 11.5,19.040465 10.723941,18.411316 8.6281777,18.171822 C 5.2709521,17.788175 3.4743537,19.187804 4.3603423,21.496654 C 5.3255185,24.011862 11.5,23.149942 11.5,20.5 z M 3,12.5 L 3,9 L 8,9 L 13,9 L 13,12.5 L 13,16 L 8,16 L 3,16 L 3,12.5 z M 11.5,12.5 C 11.5,11.040465 10.723941,10.411316 8.6281777,10.171822 C 5.2709521,9.7881752 3.4743537,11.187804 4.3603423,13.496654 C 5.3255185,16.011862 11.5,15.149942 11.5,12.5 z M 40.5,37 C 40.899036,36.354347 36.824045,36 29,36 C 21.175955,36 17.100964,36.354347 17.5,37 C 17.850759,37.56754 22.824045,38 29,38 C 35.175955,38 40.149241,37.56754 40.5,37 z M 42,23 L 42,12 L 29,12 L 16,12 L 16,23 L 16,34 L 29,34 L 42,34 L 42,23 z M 40.5,9 C 39.685743,7.6825037 18.314257,7.6825037 17.5,9 C 17.100964,9.645653 21.175955,10 29,10 C 36.824045,10 40.899036,9.645653 40.5,9 z "
       id="path2375" />
    <path
       style="fill:#bbc3d5"
       d="M 0,20 L 0,0 L 22,0 L 44,0 L 44,20 L 44,40 L 22,40 L 0,40 L 0,20 z M 14,23 L 14,8 L 8,8 L 2,8 L 2,23 L 2,38 L 8,38 L 14,38 L 14,23 z M 3.1160014,35.25 C 3.0103731,33.2012 3.4471107,33 8,33 C 12.552889,33 12.989627,33.2012 12.883999,35.25 C 12.796705,36.94317 12.654819,37.06691 12.310674,35.75 C 11.659974,33.260016 4.3400265,33.260016 3.6893255,35.75 C 3.3451809,37.06691 3.2032947,36.94317 3.1160014,35.25 z M 3,28.5 L 3,25 L 8,25 L 13,25 L 13,28.5 L 13,32 L 8,32 L 3,32 L 3,28.5 z M 12,28.5 C 12,26.25 11.6,26 8,26 C 4.4,26 4,26.25 4,28.5 C 4,30.75 4.4,31 8,31 C 11.6,31 12,30.75 12,28.5 z M 3,20.5 L 3,17 L 8,17 L 13,17 L 13,20.5 L 13,24 L 8,24 L 3,24 L 3,20.5 z M 12,20.5 C 12,18.25 11.6,18 8,18 C 4.4,18 4,18.25 4,20.5 C 4,22.75 4.4,23 8,23 C 11.6,23 12,22.75 12,20.5 z M 3,12.5 L 3,9 L 8,9 L 13,9 L 13,12.5 L 13,16 L 8,16 L 3,16 L 3,12.5 z M 12,12.5 C 12,10.25 11.6,10 8,10 C 4.4,10 4,10.25 4,12.5 C 4,14.75 4.4,15 8,15 C 11.6,15 12,14.75 12,12.5 z M 40.5,37 C 40.899492,36.353609 36.677051,36 28.559017,36 C 20.853006,36 16,36.386416 16,37 C 16,37.610837 20.646994,38 27.940983,38 C 34.822949,38 40.143807,37.576332 40.5,37 z M 42,23 L 42,12 L 29,12 L 16,12 L 16,23 L 16,34 L 29,34 L 42,34 L 42,23 z M 42,9 C 42,8.3846154 37,8 29,8 C 21,8 16,8.3846154 16,9 C 16,9.6153846 21,10 29,10 C 37,10 42,9.6153846 42,9 z "
       id="path2373" />
    <path
       style="fill:#999ece"
       d="M 0,20 L 0,0 L 22,0 L 44,0 L 44,20 L 44,40 L 22,40 L 0,40 L 0,20 z M 14,23 L 14,8 L 8,8 L 2,8 L 2,23 L 2,38 L 8,38 L 14,38 L 14,23 z M 3.1160014,35.25 C 3.0103731,33.2012 3.4471107,33 8,33 C 12.552889,33 12.989627,33.2012 12.883999,35.25 C 12.796705,36.94317 12.654819,37.06691 12.310674,35.75 C 11.659974,33.260016 4.3400265,33.260016 3.6893255,35.75 C 3.3451809,37.06691 3.2032947,36.94317 3.1160014,35.25 z M 3,28.5 L 3,25 L 8,25 L 13,25 L 13,28.5 L 13,32 L 8,32 L 3,32 L 3,28.5 z M 12,28.5 C 12,26.25 11.6,26 8,26 C 4.4,26 4,26.25 4,28.5 C 4,30.75 4.4,31 8,31 C 11.6,31 12,30.75 12,28.5 z M 3,20.5 L 3,17 L 8,17 L 13,17 L 13,20.5 L 13,24 L 8,24 L 3,24 L 3,20.5 z M 12,20.5 C 12,18.25 11.6,18 8,18 C 4.4,18 4,18.25 4,20.5 C 4,22.75 4.4,23 8,23 C 11.6,23 12,22.75 12,20.5 z M 3,12.5 L 3,9 L 8,9 L 13,9 L 13,12.5 L 13,16 L 8,16 L 3,16 L 3,12.5 z M 12,12.5 C 12,10.25 11.6,10 8,10 C 4.4,10 4,10.25 4,12.5 C 4,14.75 4.4,15 8,15 C 11.6,15 12,14.75 12,12.5 z M 42,37 C 42,36.384615 37,36 29,36 C 21,36 16,36.384615 16,37 C 16,37.615385 21,38 29,38 C 37,38 42,37.615385 42,37 z M 42,23 L 42,12 L 29,12 L 16,12 L 16,23 L 16,34 L 29,34 L 42,34 L 42,23 z M 42,9 C 42,8.3846154 37,8 29,8 C 21,8 16,8.3846154 16,9 C 16,9.6153846 21,10 29,10 C 37,10 42,9.6153846 42,9 z "
       id="path2371" />
    <path
       style="fill:#acacac"
       d="M 0.45287235,38.737783 C 0.1780515,38.021611 0.076228505,29.125131 0.22659904,18.967826 L 0.5,0.5 L 22,0.5 L 43.5,0.5 L 43.5,20 L 43.5,39.5 L 22.226273,39.769957 C 5.4807566,39.982452 0.84618868,39.762749 0.45287235,38.737783 z M 14,23 L 14,8 L 8,8 L 2,8 L 2,23 L 2,38 L 8,38 L 14,38 L 14,23 z M 3.1160014,35.25 C 3.0103731,33.2012 3.4471107,33 8,33 C 12.552889,33 12.989627,33.2012 12.883999,35.25 C 12.796705,36.94317 12.654819,37.06691 12.310674,35.75 C 11.659974,33.260016 4.3400265,33.260016 3.6893255,35.75 C 3.3451809,37.06691 3.2032947,36.94317 3.1160014,35.25 z M 3,28.5 L 3,25 L 8,25 L 13,25 L 13,28.5 L 13,32 L 8,32 L 3,32 L 3,28.5 z M 12,28.5 C 12,26.25 11.6,26 8,26 C 4.4,26 4,26.25 4,28.5 C 4,30.75 4.4,31 8,31 C 11.6,31 12,30.75 12,28.5 z M 3,20.5 L 3,17 L 8,17 L 13,17 L 13,20.5 L 13,24 L 8,24 L 3,24 L 3,20.5 z M 12,20.5 C 12,18.25 11.6,18 8,18 C 4.4,18 4,18.25 4,20.5 C 4,22.75 4.4,23 8,23 C 11.6,23 12,22.75 12,20.5 z M 3,12.5 L 3,9 L 8,9 L 13,9 L 13,12.5 L 13,16 L 8,16 L 3,16 L 3,12.5 z M 12,12.5 C 12,10.25 11.6,10 8,10 C 4.4,10 4,10.25 4,12.5 C 4,14.75 4.4,15 8,15 C 11.6,15 12,14.75 12,12.5 z M 42,37 C 42,36.384615 37,36 29,36 C 21,36 16,36.384615 16,37 C 16,37.615385 21,38 29,38 C 37,38 42,37.615385 42,37 z M 42,23 L 42,12 L 29,12 L 16,12 L 16,23 L 16,34 L 29,34 L 42,34 L 42,23 z M 42,9 C 42,8.3846154 37,8 29,8 C 21,8 16,8.3846154 16,9 C 16,9.6153846 21,10 29,10 C 37,10 42,9.6153846 42,9 z "
       id="path2369" />
    <path
       style="fill:#54a8fa"
       d="M 0.45287235,38.737783 C 0.1780515,38.021611 0.076228505,29.125131 0.22659904,18.967826 L 0.5,0.5 L 22,0.5 L 43.5,0.5 L 43.5,20 L 43.5,39.5 L 22.226273,39.769957 C 5.4807566,39.982452 0.84618868,39.762749 0.45287235,38.737783 z M 14,23 L 14,8 L 8,8 L 2,8 L 2,23 L 2,38 L 8,38 L 14,38 L 14,23 z M 3.1160014,35.25 C 3.0103731,33.2012 3.4471107,33 8,33 C 12.552889,33 12.989627,33.2012 12.883999,35.25 C 12.796705,36.94317 12.654819,37.06691 12.310674,35.75 C 11.659974,33.260016 4.3400265,33.260016 3.6893255,35.75 C 3.3451809,37.06691 3.2032947,36.94317 3.1160014,35.25 z M 3,28.5 L 3,25 L 8,25 L 13,25 L 13,28.5 L 13,32 L 8,32 L 3,32 L 3,28.5 z M 12,28.5 C 12,26.25 11.6,26 8,26 C 4.4,26 4,26.25 4,28.5 C 4,30.75 4.4,31 8,31 C 11.6,31 12,30.75 12,28.5 z M 3,20.5 L 3,17 L 8,17 L 13,17 L 13,20.5 L 13,24 L 8,24 L 3,24 L 3,20.5 z M 12,20.5 C 12,18.25 11.6,18 8,18 C 4.4,18 4,18.25 4,20.5 C 4,22.75 4.4,23 8,23 C 11.6,23 12,22.75 12,20.5 z M 3,12.5 L 3,9 L 8,9 L 13,9 L 13,12.5 L 13,16 L 8,16 L 3,16 L 3,12.5 z M 12,12.5 C 12,10.25 11.6,10 8,10 C 4.4,10 4,10.25 4,12.5 C 4,14.75 4.4,15 8,15 C 11.6,15 12,14.75 12,12.5 z M 42,23 L 42,8 L 29,8 L 16,8 L 16,23 L 16,38 L 29,38 L 42,38 L 42,23 z "
       id="path2367" />
    <path
       style="fill:#7f97d8"
       d="M 0.45287235,38.737783 C 0.1780515,38.021611 0.076228505,29.125131 0.22659904,18.967826 L 0.5,0.5 L 22,0.5 L 43.5,0.5 L 43.5,20 L 43.5,39.5 L 22.226273,39.769957 C 5.4807566,39.982452 0.84618868,39.762749 0.45287235,38.737783 z M 14,23 L 14,8 L 8,8 L 2,8 L 2,23 L 2,38 L 8,38 L 14,38 L 14,23 z M 3.1160014,35.25 C 3.0103731,33.2012 3.4471107,33 8,33 C 12.552889,33 12.989627,33.2012 12.883999,35.25 C 12.796705,36.94317 12.654819,37.06691 12.310674,35.75 C 11.659974,33.260016 4.3400265,33.260016 3.6893255,35.75 C 3.3451809,37.06691 3.2032947,36.94317 3.1160014,35.25 z M 3,28.5 L 3,25 L 8,25 L 13,25 L 13,28.5 L 13,32 L 8,32 L 3,32 L 3,28.5 z M 12,28.5 C 12,26.25 11.6,26 8,26 C 4.4,26 4,26.25 4,28.5 C 4,30.75 4.4,31 8,31 C 11.6,31 12,30.75 12,28.5 z M 3,20.5 L 3,17 L 8,17 L 13,17 L 13,20.5 L 13,24 L 8,24 L 3,24 L 3,20.5 z M 12,20.5 C 12,18.25 11.6,18 8,18 C 4.4,18 4,18.25 4,20.5 C 4,22.75 4.4,23 8,23 C 11.6,23 12,22.75 12,20.5 z M 3,12.5 L 3,9 L 8,9 L 13,9 L 13,12.5 L 13,16 L 8,16 L 3,16 L 3,12.5 z M 12,12.5 C 12,10.25 11.6,10 8,10 C 4.4,10 4,10.25 4,12.5 C 4,14.75 4.4,15 8,15 C 11.6,15 12,14.75 12,12.5 z M 42,23 L 42,8 L 29,8 L 16,8 L 16,23 L 16,38 L 29,38 L 42,38 L 42,23 z M 26,3 C 26,2.45 25.55,2 25,2 C 24.45,2 24,2.45 24,3 C 24,3.55 24.45,4 25,4 C 25.55,4 26,3.55 26,3 z M 32,3 C 32,2.45 31.55,2 31,2 C 30.45,2 30,2.45 30,3 C 30,3.55 30.45,4 31,4 C 31.55,4 32,3.55 32,3 z M 38,3 C 38,2.45 37.55,2 37,2 C 36.45,2 36,2.45 36,3 C 36,3.55 36.45,4 37,4 C 37.55,4 38,3.55 38,3 z "
       id="path2365" />
    <path
       style="fill:#5c99ea"
       d="M 0.45287235,38.737783 C 0.1780515,38.021611 0.076228505,29.125131 0.22659904,18.967826 L 0.5,0.5 L 22,0.5 L 43.5,0.5 L 43.5,20 L 43.5,39.5 L 22.226273,39.769957 C 5.4807566,39.982452 0.84618868,39.762749 0.45287235,38.737783 z M 14,23 L 14,8 L 8,8 L 2,8 L 2,23 L 2,38 L 8,38 L 14,38 L 14,23 z M 3.4174038,35 C 3.4975733,33.906644 4.7398962,33.5 8,33.5 C 11.260104,33.5 12.502427,33.906644 12.582596,35 C 12.645831,35.862404 12.514219,35.96867 12.272967,35.25 C 12.034243,34.538859 10.19222,34 8,34 C 5.8077802,34 3.9657574,34.538859 3.727033,35.25 C 3.4857809,35.96867 3.3541688,35.862404 3.4174038,35 z M 3.4062772,30.616358 C 2.0204848,27.005041 3.3758147,25.5 8.013695,25.5 C 12.331812,25.5 12.5,25.612468 12.5,28.5 C 12.5,31.315555 12.23814,31.518933 8.2408507,31.807945 C 5.1687896,32.030061 3.8213222,31.697948 3.4062772,30.616358 z M 12,28.5 C 12,26.25 11.6,26 8,26 C 4.4,26 4,26.25 4,28.5 C 4,30.75 4.4,31 8,31 C 11.6,31 12,30.75 12,28.5 z M 3.4062772,22.616358 C 2.0204848,19.005041 3.3758147,17.5 8.013695,17.5 C 12.331812,17.5 12.5,17.612468 12.5,20.5 C 12.5,23.315555 12.23814,23.518933 8.2408507,23.807945 C 5.1687896,24.030061 3.8213222,23.697948 3.4062772,22.616358 z M 12,20.5 C 12,18.25 11.6,18 8,18 C 4.4,18 4,18.25 4,20.5 C 4,22.75 4.4,23 8,23 C 11.6,23 12,22.75 12,20.5 z M 3.4062772,14.616358 C 2.0204848,11.005041 3.3758147,9.5 8.013695,9.5 C 12.331812,9.5 12.5,9.6124678 12.5,12.5 C 12.5,15.315555 12.23814,15.518933 8.2408507,15.807945 C 5.1687896,16.030061 3.8213222,15.697948 3.4062772,14.616358 z M 12,12.5 C 12,10.25 11.6,10 8,10 C 4.4,10 4,10.25 4,12.5 C 4,14.75 4.4,15 8,15 C 11.6,15 12,14.75 12,12.5 z M 42,23 L 42,8 L 29,8 L 16,8 L 16,23 L 16,38 L 29,38 L 42,38 L 42,23 z M 26,3 C 26,2.45 25.55,2 25,2 C 24.45,2 24,2.45 24,3 C 24,3.55 24.45,4 25,4 C 25.55,4 26,3.55 26,3 z M 32,3 C 32,2.45 31.55,2 31,2 C 30.45,2 30,2.45 30,3 C 30,3.55 30.45,4 31,4 C 31.55,4 32,3.55 32,3 z M 38,3 C 38,2.45 37.55,2 37,2 C 36.45,2 36,2.45 36,3 C 36,3.55 36.45,4 37,4 C 37.55,4 38,3.55 38,3 z "
       id="path2363" />
    <path
       style="fill:#2c7adc"
       d="M 0.45287235,38.737783 C 0.1780515,38.021611 0.076228505,29.125131 0.22659904,18.967826 L 0.5,0.5 L 22,0.5 L 43.5,0.5 L 43.5,20 L 43.5,39.5 L 22.226273,39.769957 C 5.4807566,39.982452 0.84618868,39.762749 0.45287235,38.737783 z M 14,23 L 14,8 L 8,8 L 2,8 L 2,23 L 2,38 L 8,38 L 14,38 L 14,23 z M 3.4174038,35 C 3.4975733,33.906644 4.7398962,33.5 8,33.5 C 11.260104,33.5 12.502427,33.906644 12.582596,35 C 12.645831,35.862404 12.514219,35.96867 12.272967,35.25 C 12.034243,34.538859 10.19222,34 8,34 C 5.8077802,34 3.9657574,34.538859 3.727033,35.25 C 3.4857809,35.96867 3.3541688,35.862404 3.4174038,35 z M 3.4062772,30.616358 C 2.0204848,27.005041 3.3758147,25.5 8.013695,25.5 C 12.331812,25.5 12.5,25.612468 12.5,28.5 C 12.5,31.315555 12.23814,31.518933 8.2408507,31.807945 C 5.1687896,32.030061 3.8213222,31.697948 3.4062772,30.616358 z M 12,28.5 C 12,26.25 11.6,26 8,26 C 4.4,26 4,26.25 4,28.5 C 4,30.75 4.4,31 8,31 C 11.6,31 12,30.75 12,28.5 z M 3.4062772,22.616358 C 2.0204848,19.005041 3.3758147,17.5 8.013695,17.5 C 12.331812,17.5 12.5,17.612468 12.5,20.5 C 12.5,23.315555 12.23814,23.518933 8.2408507,23.807945 C 5.1687896,24.030061 3.8213222,23.697948 3.4062772,22.616358 z M 12,20.5 C 12,18.25 11.6,18 8,18 C 4.4,18 4,18.25 4,20.5 C 4,22.75 4.4,23 8,23 C 11.6,23 12,22.75 12,20.5 z M 3.4062772,14.616358 C 2.0204848,11.005041 3.3758147,9.5 8.013695,9.5 C 12.331812,9.5 12.5,9.6124678 12.5,12.5 C 12.5,15.315555 12.23814,15.518933 8.2408507,15.807945 C 5.1687896,16.030061 3.8213222,15.697948 3.4062772,14.616358 z M 12,12.5 C 12,10.25 11.6,10 8,10 C 4.4,10 4,10.25 4,12.5 C 4,14.75 4.4,15 8,15 C 11.6,15 12,14.75 12,12.5 z M 42,23 L 42,8 L 29,8 L 16,8 L 16,23 L 16,38 L 29,38 L 42,38 L 42,23 z M 26,4 C 26,2.9 25.55,2 25,2 C 24.45,2 24,2.9 24,4 C 24,5.1 24.45,6 25,6 C 25.55,6 26,5.1 26,4 z M 32,4 C 32,2.9 31.55,2 31,2 C 30.45,2 30,2.9 30,4 C 30,5.1 30.45,6 31,6 C 31.55,6 32,5.1 32,4 z M 38,4 C 38,2.9 37.55,2 37,2 C 36.45,2 36,2.9 36,4 C 36,5.1 36.45,6 37,6 C 37.55,6 38,5.1 38,4 z "
       id="path2361" />
    <path
       style="fill:#0071e9"
       d="M 0.45287235,38.737783 C 0.1780515,38.021611 0.076228505,29.125131 0.22659904,18.967826 L 0.5,0.5 L 22,0.5 L 43.5,0.5 L 43.5,20 L 43.5,39.5 L 22.226273,39.769957 C 5.4807566,39.982452 0.84618868,39.762749 0.45287235,38.737783 z M 14,23 L 14,8 L 8,8 L 2,8 L 2,23 L 2,38 L 8,38 L 14,38 L 14,23 z M 3.4174038,35 C 3.4975733,33.906644 4.7398962,33.5 8,33.5 C 11.260104,33.5 12.502427,33.906644 12.582596,35 C 12.645831,35.862404 12.514219,35.96867 12.272967,35.25 C 12.034243,34.538859 10.19222,34 8,34 C 5.8077802,34 3.9657574,34.538859 3.727033,35.25 C 3.4857809,35.96867 3.3541688,35.862404 3.4174038,35 z M 3.4062772,30.616358 C 2.0204848,27.005041 3.3758147,25.5 8.013695,25.5 C 12.331812,25.5 12.5,25.612468 12.5,28.5 C 12.5,31.315555 12.23814,31.518933 8.2408507,31.807945 C 5.1687896,32.030061 3.8213222,31.697948 3.4062772,30.616358 z M 12,28.5 C 12,26.25 11.6,26 8,26 C 4.4,26 4,26.25 4,28.5 C 4,30.75 4.4,31 8,31 C 11.6,31 12,30.75 12,28.5 z M 3.4062772,22.616358 C 2.0204848,19.005041 3.3758147,17.5 8.013695,17.5 C 12.331812,17.5 12.5,17.612468 12.5,20.5 C 12.5,23.315555 12.23814,23.518933 8.2408507,23.807945 C 5.1687896,24.030061 3.8213222,23.697948 3.4062772,22.616358 z M 12,20.5 C 12,18.25 11.6,18 8,18 C 4.4,18 4,18.25 4,20.5 C 4,22.75 4.4,23 8,23 C 11.6,23 12,22.75 12,20.5 z M 3.4062772,14.616358 C 2.0204848,11.005041 3.3758147,9.5 8.013695,9.5 C 12.331812,9.5 12.5,9.6124678 12.5,12.5 C 12.5,15.315555 12.23814,15.518933 8.2408507,15.807945 C 5.1687896,16.030061 3.8213222,15.697948 3.4062772,14.616358 z M 12,12.5 C 12,10.25 11.6,10 8,10 C 4.4,10 4,10.25 4,12.5 C 4,14.75 4.4,15 8,15 C 11.6,15 12,14.75 12,12.5 z M 42,23 L 42,8 L 29,8 L 16,8 L 16,23 L 16,38 L 29,38 L 42,38 L 42,23 z M 28,5.4285714 C 28,4.6863151 25.313685,2 24.571429,2 C 24.257143,2 24,2.9 24,4 C 24,5.3333333 24.666667,6 26,6 C 27.1,6 28,5.7428571 28,5.4285714 z M 34,5.4285714 C 34,4.6863151 31.313685,2 30.571429,2 C 30.257143,2 30,2.9 30,4 C 30,5.3333333 30.666667,6 32,6 C 33.1,6 34,5.7428571 34,5.4285714 z M 40,5.4285714 C 40,4.6863151 37.313685,2 36.571429,2 C 36.257143,2 36,2.9 36,4 C 36,5.3333333 36.666667,6 38,6 C 39.1,6 40,5.7428571 40,5.4285714 z "
       id="path2359" />
    <path
       style="fill:#006ae1"
       d="M 0.45287235,38.737783 C 0.1780515,38.021611 0.076228505,29.125131 0.22659904,18.967826 L 0.5,0.5 L 22,0.5 L 43.5,0.5 L 43.5,20 L 43.5,39.5 L 22.226273,39.769957 C 5.4807566,39.982452 0.84618868,39.762749 0.45287235,38.737783 z M 14,23 L 14,8 L 8,8 L 2,8 L 2,23 L 2,38 L 8,38 L 14,38 L 14,23 z M 3.4174038,35 C 3.4975733,33.906644 4.7398962,33.5 8,33.5 C 11.260104,33.5 12.502427,33.906644 12.582596,35 C 12.645831,35.862404 12.514219,35.96867 12.272967,35.25 C 12.034243,34.538859 10.19222,34 8,34 C 5.8077802,34 3.9657574,34.538859 3.727033,35.25 C 3.4857809,35.96867 3.3541688,35.862404 3.4174038,35 z M 3.4062772,30.616358 C 2.0204848,27.005041 3.3758147,25.5 8.013695,25.5 C 12.331812,25.5 12.5,25.612468 12.5,28.5 C 12.5,31.315555 12.23814,31.518933 8.2408507,31.807945 C 5.1687896,32.030061 3.8213222,31.697948 3.4062772,30.616358 z M 12,28.5 C 12,26.25 11.6,26 8,26 C 4.4,26 4,26.25 4,28.5 C 4,30.75 4.4,31 8,31 C 11.6,31 12,30.75 12,28.5 z M 3.4062772,22.616358 C 2.0204848,19.005041 3.3758147,17.5 8.013695,17.5 C 12.331812,17.5 12.5,17.612468 12.5,20.5 C 12.5,23.315555 12.23814,23.518933 8.2408507,23.807945 C 5.1687896,24.030061 3.8213222,23.697948 3.4062772,22.616358 z M 12,20.5 C 12,18.25 11.6,18 8,18 C 4.4,18 4,18.25 4,20.5 C 4,22.75 4.4,23 8,23 C 11.6,23 12,22.75 12,20.5 z M 3.4062772,14.616358 C 2.0204848,11.005041 3.3758147,9.5 8.013695,9.5 C 12.331812,9.5 12.5,9.6124678 12.5,12.5 C 12.5,15.315555 12.23814,15.518933 8.2408507,15.807945 C 5.1687896,16.030061 3.8213222,15.697948 3.4062772,14.616358 z M 12,12.5 C 12,10.25 11.6,10 8,10 C 4.4,10 4,10.25 4,12.5 C 4,14.75 4.4,15 8,15 C 11.6,15 12,14.75 12,12.5 z M 42,23 L 42,8 L 29,8 L 16,8 L 16,23 L 16,38 L 29,38 L 42,38 L 42,23 z M 28.416667,4.75 C 28.883333,3.75 29.116667,3.75 29.583333,4.75 C 30.338338,6.3678668 33.661662,6.3678668 34.416667,4.75 C 34.883333,3.75 35.116667,3.75 35.583333,4.75 C 36.152944,5.9705938 40,6.5616509 40,5.4285714 C 40,4.2846173 37.104565,2 35.654762,2 C 34.83631,2 33.904167,2.5625 33.583333,3.25 C 33.116667,4.25 32.883333,4.25 32.416667,3.25 C 31.661662,1.6321332 28.338338,1.6321332 27.583333,3.25 C 27.116667,4.25 26.883333,4.25 26.416667,3.25 C 25.992089,2.3401912 22.794292,2.0573964 14.666667,2.2108974 L 3.5,2.4217949 L 13.75,2.7458805 C 21.938185,3.0047755 24,3.3646583 24,4.5349831 C 24,6.3192123 27.602523,6.4945941 28.416667,4.75 z "
       id="path2357" />
    <path
       style="fill:#0069e1"
       d="M 0.45287235,38.737783 C 0.1780515,38.021611 0.076228505,29.125131 0.22659904,18.967826 L 0.5,0.5 L 22,0.5 L 43.5,0.5 L 43.5,20 L 43.5,39.5 L 22.226273,39.769957 C 5.4807566,39.982452 0.84618868,39.762749 0.45287235,38.737783 z M 14,23 L 14,8 L 8,8 L 2,8 L 2,23 L 2,38 L 8,38 L 14,38 L 14,23 z M 3.4174038,35 C 3.4975733,33.906644 4.7398962,33.5 8,33.5 C 11.260104,33.5 12.502427,33.906644 12.582596,35 C 12.645831,35.862404 12.514219,35.96867 12.272967,35.25 C 12.034243,34.538859 10.19222,34 8,34 C 5.8077802,34 3.9657574,34.538859 3.727033,35.25 C 3.4857809,35.96867 3.3541688,35.862404 3.4174038,35 z M 3.4062772,30.616358 C 2.0204848,27.005041 3.3758147,25.5 8.013695,25.5 C 12.331812,25.5 12.5,25.612468 12.5,28.5 C 12.5,31.315555 12.23814,31.518933 8.2408507,31.807945 C 5.1687896,32.030061 3.8213222,31.697948 3.4062772,30.616358 z M 12,28.5 C 12,26.25 11.6,26 8,26 C 4.4,26 4,26.25 4,28.5 C 4,30.75 4.4,31 8,31 C 11.6,31 12,30.75 12,28.5 z M 3.4062772,22.616358 C 2.0204848,19.005041 3.3758147,17.5 8.013695,17.5 C 12.331812,17.5 12.5,17.612468 12.5,20.5 C 12.5,23.315555 12.23814,23.518933 8.2408507,23.807945 C 5.1687896,24.030061 3.8213222,23.697948 3.4062772,22.616358 z M 12,20.5 C 12,18.25 11.6,18 8,18 C 4.4,18 4,18.25 4,20.5 C 4,22.75 4.4,23 8,23 C 11.6,23 12,22.75 12,20.5 z M 3.4062772,14.616358 C 2.0204848,11.005041 3.3758147,9.5 8.013695,9.5 C 12.331812,9.5 12.5,9.6124678 12.5,12.5 C 12.5,15.315555 12.23814,15.518933 8.2408507,15.807945 C 5.1687896,16.030061 3.8213222,15.697948 3.4062772,14.616358 z M 12,12.5 C 12,10.25 11.6,10 8,10 C 4.4,10 4,10.25 4,12.5 C 4,14.75 4.4,15 8,15 C 11.6,15 12,14.75 12,12.5 z M 42,23 L 42,8 L 29,8 L 16,8 L 16,23 L 16,38 L 29,38 L 42,38 L 42,23 z M 28.416667,4.75 C 28.883333,3.75 29.116667,3.75 29.583333,4.75 C 30.338338,6.3678668 33.661662,6.3678668 34.416667,4.75 C 34.883333,3.75 35.116667,3.75 35.583333,4.75 C 36.152944,5.9705938 40,6.5616509 40,5.4285714 C 40,4.2846173 37.104565,2 35.654762,2 C 34.83631,2 33.904167,2.5625 33.583333,3.25 C 33.116667,4.25 32.883333,4.25 32.416667,3.25 C 31.661662,1.6321332 28.338338,1.6321332 27.583333,3.25 C 27.116667,4.25 26.883333,4.25 26.416667,3.25 C 25.693265,1.6998539 4.4467823,1.4680741 3.5,3 C 3.102882,3.6425504 6.6562824,4 13.440983,4 C 19.813661,4 24,4.3964705 24,5 C 24,6.4434602 27.724776,6.2326239 28.416667,4.75 z "
       id="path2355" />
    <path
       style="fill:#0064d9"
       d="M 0.45287235,38.737783 C 0.1780515,38.021611 0.076228505,29.125131 0.22659904,18.967826 L 0.5,0.5 L 22,0.5 L 43.5,0.5 L 43.5,20 L 43.5,39.5 L 22.226273,39.769957 C 5.4807566,39.982452 0.84618868,39.762749 0.45287235,38.737783 z M 14,23 L 14,8 L 8,8 L 2,8 L 2,23 L 2,38 L 8,38 L 14,38 L 14,23 z M 3.4174038,35 C 3.4975733,33.906644 4.7398962,33.5 8,33.5 C 11.260104,33.5 12.502427,33.906644 12.582596,35 C 12.645831,35.862404 12.514219,35.96867 12.272967,35.25 C 12.034243,34.538859 10.19222,34 8,34 C 5.8077802,34 3.9657574,34.538859 3.727033,35.25 C 3.4857809,35.96867 3.3541688,35.862404 3.4174038,35 z M 3.4062772,30.616358 C 2.0204848,27.005041 3.3758147,25.5 8.013695,25.5 C 12.331812,25.5 12.5,25.612468 12.5,28.5 C 12.5,31.315555 12.23814,31.518933 8.2408507,31.807945 C 5.1687896,32.030061 3.8213222,31.697948 3.4062772,30.616358 z M 12,28.5 C 12,26.25 11.6,26 8,26 C 4.4,26 4,26.25 4,28.5 C 4,30.75 4.4,31 8,31 C 11.6,31 12,30.75 12,28.5 z M 3.4062772,22.616358 C 2.0204848,19.005041 3.3758147,17.5 8.013695,17.5 C 12.331812,17.5 12.5,17.612468 12.5,20.5 C 12.5,23.315555 12.23814,23.518933 8.2408507,23.807945 C 5.1687896,24.030061 3.8213222,23.697948 3.4062772,22.616358 z M 12,20.5 C 12,18.25 11.6,18 8,18 C 4.4,18 4,18.25 4,20.5 C 4,22.75 4.4,23 8,23 C 11.6,23 12,22.75 12,20.5 z M 3.4062772,14.616358 C 2.0204848,11.005041 3.3758147,9.5 8.013695,9.5 C 12.331812,9.5 12.5,9.6124678 12.5,12.5 C 12.5,15.315555 12.23814,15.518933 8.2408507,15.807945 C 5.1687896,16.030061 3.8213222,15.697948 3.4062772,14.616358 z M 12,12.5 C 12,10.25 11.6,10 8,10 C 4.4,10 4,10.25 4,12.5 C 4,14.75 4.4,15 8,15 C 11.6,15 12,14.75 12,12.5 z M 42,23 L 42,8 L 29,8 L 16,8 L 16,23 L 16,38 L 29,38 L 42,38 L 42,23 z M 28.416667,4.75 C 28.883333,3.75 29.116667,3.75 29.583333,4.75 C 30.338338,6.3678668 33.661662,6.3678668 34.416667,4.75 C 34.883333,3.75 35.116667,3.75 35.583333,4.75 C 35.904167,5.4375 36.83631,6 37.654762,6 C 39.510936,6 42.475689,3.1423554 41.564675,2.2313413 C 41.194293,1.86096 40.431463,2.2198885 39.869496,3.0289603 C 39.09631,4.142127 38.724346,4.1959013 38.340536,3.25 C 37.683665,1.6311429 34.3388,1.6311429 33.583333,3.25 C 33.116667,4.25 32.883333,4.25 32.416667,3.25 C 31.661662,1.6321332 28.338338,1.6321332 27.583333,3.25 C 27.116667,4.25 26.883333,4.25 26.416667,3.25 C 25.685821,1.6839025 2,1.4413856 2,3 C 2,3.6060606 6.3333333,4 13,4 C 19.666667,4 24,4.3939394 24,5 C 24,6.4434602 27.724776,6.2326239 28.416667,4.75 z "
       id="path2353" />
    <path
       style="fill:#005dd1"
       d="M 0.45287235,38.737783 C 0.1780515,38.021611 0.076228505,29.125131 0.22659904,18.967826 L 0.5,0.5 L 22,0.5 L 43.5,0.5 L 43.5,20 L 43.5,39.5 L 22.226273,39.769957 C 5.4807566,39.982452 0.84618868,39.762749 0.45287235,38.737783 z M 14,23 L 14,8 L 8,8 L 2,8 L 2,23 L 2,38 L 8,38 L 14,38 L 14,23 z M 3.4174038,35 C 3.4975733,33.906644 4.7398962,33.5 8,33.5 C 11.260104,33.5 12.502427,33.906644 12.582596,35 C 12.645831,35.862404 12.514219,35.96867 12.272967,35.25 C 12.034243,34.538859 10.19222,34 8,34 C 5.8077802,34 3.9657574,34.538859 3.727033,35.25 C 3.4857809,35.96867 3.3541688,35.862404 3.4174038,35 z M 3.4062772,30.616358 C 2.0204848,27.005041 3.3758147,25.5 8.013695,25.5 C 12.331812,25.5 12.5,25.612468 12.5,28.5 C 12.5,31.315555 12.23814,31.518933 8.2408507,31.807945 C 5.1687896,32.030061 3.8213222,31.697948 3.4062772,30.616358 z M 12,28.5 C 12,26.25 11.6,26 8,26 C 4.4,26 4,26.25 4,28.5 C 4,30.75 4.4,31 8,31 C 11.6,31 12,30.75 12,28.5 z M 3.4062772,22.616358 C 2.0204848,19.005041 3.3758147,17.5 8.013695,17.5 C 12.331812,17.5 12.5,17.612468 12.5,20.5 C 12.5,23.315555 12.23814,23.518933 8.2408507,23.807945 C 5.1687896,24.030061 3.8213222,23.697948 3.4062772,22.616358 z M 12,20.5 C 12,18.25 11.6,18 8,18 C 4.4,18 4,18.25 4,20.5 C 4,22.75 4.4,23 8,23 C 11.6,23 12,22.75 12,20.5 z M 3.4062772,14.616358 C 2.0204848,11.005041 3.3758147,9.5 8.013695,9.5 C 12.331812,9.5 12.5,9.6124678 12.5,12.5 C 12.5,15.315555 12.23814,15.518933 8.2408507,15.807945 C 5.1687896,16.030061 3.8213222,15.697948 3.4062772,14.616358 z M 12,12.5 C 12,10.25 11.6,10 8,10 C 4.4,10 4,10.25 4,12.5 C 4,14.75 4.4,15 8,15 C 11.6,15 12,14.75 12,12.5 z M 42,23 L 42,8 L 29,8 L 16,8 L 16,23 L 16,38 L 29,38 L 42,38 L 42,23 z M 28.416667,4.75 C 28.883333,3.75 29.116667,3.75 29.583333,4.75 C 30.338338,6.3678668 33.661662,6.3678668 34.416667,4.75 C 34.883333,3.75 35.116667,3.75 35.583333,4.75 C 35.904167,5.4375 36.83631,6 37.654762,6 C 39.510936,6 42.475689,3.1423554 41.564675,2.2313413 C 41.194293,1.86096 40.431463,2.2198885 39.869496,3.0289603 C 39.09631,4.142127 38.724346,4.1959013 38.340536,3.25 C 37.683665,1.6311429 34.3388,1.6311429 33.583333,3.25 C 33.116667,4.25 32.883333,4.25 32.416667,3.25 C 31.661662,1.6321332 28.338338,1.6321332 27.583333,3.25 C 27.116667,4.25 26.883333,4.25 26.416667,3.25 C 25.997863,2.3525641 22.472222,2 13.916667,2 C 4.1089618,2 2,2.2596676 2,3.4672489 C 2,4.6510626 4.1732142,4.9961195 13.25,5.2534929 C 19.4375,5.4289402 25.25,5.6686782 26.166667,5.786244 C 27.083333,5.9038098 28.095833,5.4375 28.416667,4.75 z "
       id="path2351" />
    <path
       style="fill:#0047de"
       d="M 0.45287235,38.737783 C 0.1780515,38.021611 0.076228505,29.125131 0.22659904,18.967826 L 0.5,0.5 L 22,0.5 L 43.5,0.5 L 43.5,20 L 43.5,39.5 L 22.226273,39.769957 C 5.4807566,39.982452 0.84618868,39.762749 0.45287235,38.737783 z M 14,23 L 14,8 L 8,8 L 2,8 L 2,23 L 2,38 L 8,38 L 14,38 L 14,23 z M 3.4174038,35 C 3.4975733,33.906644 4.7398962,33.5 8,33.5 C 11.260104,33.5 12.502427,33.906644 12.582596,35 C 12.645831,35.862404 12.514219,35.96867 12.272967,35.25 C 12.034243,34.538859 10.19222,34 8,34 C 5.8077802,34 3.9657574,34.538859 3.727033,35.25 C 3.4857809,35.96867 3.3541688,35.862404 3.4174038,35 z M 3.4062772,30.616358 C 2.0204848,27.005041 3.3758147,25.5 8.013695,25.5 C 12.331812,25.5 12.5,25.612468 12.5,28.5 C 12.5,31.315555 12.23814,31.518933 8.2408507,31.807945 C 5.1687896,32.030061 3.8213222,31.697948 3.4062772,30.616358 z M 12,28.5 C 12,26.25 11.6,26 8,26 C 4.4,26 4,26.25 4,28.5 C 4,30.75 4.4,31 8,31 C 11.6,31 12,30.75 12,28.5 z M 3.4062772,22.616358 C 2.0204848,19.005041 3.3758147,17.5 8.013695,17.5 C 12.331812,17.5 12.5,17.612468 12.5,20.5 C 12.5,23.315555 12.23814,23.518933 8.2408507,23.807945 C 5.1687896,24.030061 3.8213222,23.697948 3.4062772,22.616358 z M 12,20.5 C 12,18.25 11.6,18 8,18 C 4.4,18 4,18.25 4,20.5 C 4,22.75 4.4,23 8,23 C 11.6,23 12,22.75 12,20.5 z M 3.4062772,14.616358 C 2.0204848,11.005041 3.3758147,9.5 8.013695,9.5 C 12.331812,9.5 12.5,9.6124678 12.5,12.5 C 12.5,15.315555 12.23814,15.518933 8.2408507,15.807945 C 5.1687896,16.030061 3.8213222,15.697948 3.4062772,14.616358 z M 12,12.5 C 12,10.25 11.6,10 8,10 C 4.4,10 4,10.25 4,12.5 C 4,14.75 4.4,15 8,15 C 11.6,15 12,14.75 12,12.5 z M 42,23 L 42,8 L 29,8 L 16,8 L 16,23 L 16,38 L 29,38 L 42,38 L 42,23 z M 42,4 C 42,1.7772785 40.489382,1.3084661 39.583333,3.25 C 39.116667,4.25 38.883333,4.25 38.416667,3.25 C 38.095833,2.5625 37.008333,2 36,2 C 34.991667,2 33.904167,2.5625 33.583333,3.25 C 33.116667,4.25 32.883333,4.25 32.416667,3.25 C 31.661662,1.6321332 28.338338,1.6321332 27.583333,3.25 C 27.116667,4.25 26.883333,4.25 26.416667,3.25 C 25.997863,2.3525641 22.472222,2 13.916667,2 C 2.6666667,2 2,2.1118881 2,4 C 2,5.9333333 2.6666667,6 22,6 C 41.333333,6 42,5.9333333 42,4 z "
       id="path2349" />
    <path
       style="fill:#003bb3"
       d="M 0.45287235,38.737783 C 0.1780515,38.021611 0.076228505,29.125131 0.22659904,18.967826 L 0.5,0.5 L 22,0.5 L 43.5,0.5 L 43.5,20 L 43.5,39.5 L 22.226273,39.769957 C 5.4807566,39.982452 0.84618868,39.762749 0.45287235,38.737783 z M 14,23 L 14,8 L 8,8 L 2,8 L 2,23 L 2,38 L 8,38 L 14,38 L 14,23 z M 3.4174038,35 C 3.4975733,33.906644 4.7398962,33.5 8,33.5 C 11.260104,33.5 12.502427,33.906644 12.582596,35 C 12.645831,35.862404 12.514219,35.96867 12.272967,35.25 C 12.034243,34.538859 10.19222,34 8,34 C 5.8077802,34 3.9657574,34.538859 3.727033,35.25 C 3.4857809,35.96867 3.3541688,35.862404 3.4174038,35 z M 3.4062772,30.616358 C 2.0204848,27.005041 3.3758147,25.5 8.013695,25.5 C 12.331812,25.5 12.5,25.612468 12.5,28.5 C 12.5,31.315555 12.23814,31.518933 8.2408507,31.807945 C 5.1687896,32.030061 3.8213222,31.697948 3.4062772,30.616358 z M 12,28.5 C 12,26.25 11.6,26 8,26 C 4.4,26 4,26.25 4,28.5 C 4,30.75 4.4,31 8,31 C 11.6,31 12,30.75 12,28.5 z M 3.4062772,22.616358 C 2.0204848,19.005041 3.3758147,17.5 8.013695,17.5 C 12.331812,17.5 12.5,17.612468 12.5,20.5 C 12.5,23.315555 12.23814,23.518933 8.2408507,23.807945 C 5.1687896,24.030061 3.8213222,23.697948 3.4062772,22.616358 z M 12,20.5 C 12,18.25 11.6,18 8,18 C 4.4,18 4,18.25 4,20.5 C 4,22.75 4.4,23 8,23 C 11.6,23 12,22.75 12,20.5 z M 3.4062772,14.616358 C 2.0204848,11.005041 3.3758147,9.5 8.013695,9.5 C 12.331812,9.5 12.5,9.6124678 12.5,12.5 C 12.5,15.315555 12.23814,15.518933 8.2408507,15.807945 C 5.1687896,16.030061 3.8213222,15.697948 3.4062772,14.616358 z M 12,12.5 C 12,10.25 11.6,10 8,10 C 4.4,10 4,10.25 4,12.5 C 4,14.75 4.4,15 8,15 C 11.6,15 12,14.75 12,12.5 z M 42,23 L 42,8 L 29,8 L 16,8 L 16,23 L 16,38 L 29,38 L 42,38 L 42,23 z M 42,4 C 42,2.0666667 41.333333,2 22,2 C 2.6666667,2 2,2.0666667 2,4 C 2,5.9333333 2.6666667,6 22,6 C 41.333333,6 42,5.9333333 42,4 z "
       id="path2347" />
    <path
       style="fill:#00138b"
       d="M 0.45287235,38.737783 C 0.1780515,38.021611 0.076228505,29.125131 0.22659904,18.967826 L 0.5,0.5 L 22,0.5 L 43.5,0.5 L 43.5,20 L 43.5,39.5 L 22.226273,39.769957 C 5.4807566,39.982452 0.84618868,39.762749 0.45287235,38.737783 z M 42,20 L 42,2 L 22,2 L 2,2 L 2,20 L 2,38 L 22,38 L 42,38 L 42,20 z "
       id="path2345" />
    <path
       style="fill:#00128a"
       d="M 0.68601301,39.35268 C -0.43724714,38.22942 -0.13323646,4 1,4 C 1.627451,4 2,10.333333 2,21 L 2,38 L 22,38 L 42,38 L 42,20 L 42,2 L 20.8,2 C 6.3782274,2 -0.073611208,1.6736112 0.62083362,0.97916638 C 1.2681086,0.33189136 9.3003787,0.057440215 22.570834,0.22916638 L 43.5,0.5 L 43.5,20 L 43.5,39.5 L 22.436013,39.769346 C 10.85082,39.917487 1.0633202,39.729987 0.68601301,39.35268 z "
       id="path2343" />
    <path
       style="fill:#000e86"
       d="M 0.68601301,39.35268 C -0.43604781,38.230619 -0.13262407,6 1,6 C 1.625,6 2,12 2,22 L 2,38 L 22,38 L 42,38 L 42,20 L 42,2 L 20.8,2 C 6.3782274,2 -0.073611208,1.6736112 0.62083362,0.97916638 C 1.2681086,0.33189136 9.3003787,0.057440215 22.570834,0.22916638 L 43.5,0.5 L 43.5,20 L 43.5,39.5 L 22.436013,39.769346 C 10.85082,39.917487 1.0633202,39.729987 0.68601301,39.35268 z "
       id="path2341" />
  </g>
</svg>
